<?xml version="1.0" encoding="utf-8"?>
<!-- Generator: Adobe Illustrator 24.2.3, SVG Export Plug-In . SVG Version: 6.00 Build 0)  -->
<svg version="1.1" id="Layer_1" xmlns="http://www.w3.org/2000/svg" xmlns:xlink="http://www.w3.org/1999/xlink" x="0px" y="0px"
	 viewBox="0 0 29.7 29" style="enable-background:new 0 0 29.7 29;" xml:space="preserve">
<g>
	<path d="M15,18.5c-0.6-0.3-1.1,0-1.3,0.4l-4.1,8.7c-0.3,0.6,0,1.1,0.4,1.3c0.6,0.3,1.1,0,1.3-0.4l4.1-8.7
		C15.7,19.3,15.4,18.8,15,18.5z"/>
	<path d="M21,15.5c-0.6-0.3-1.1,0-1.3,0.4l-4.1,8.7c-0.3,0.6,0,1.1,0.4,1.3c0.6,0.3,1.1,0,1.3-0.4l4.1-8.7
		C21.7,16.4,21.4,15.8,21,15.5z"/>
	<path d="M11.9,15.5c-0.6-0.3-1.1,0-1.3,0.4l-4.1,8.8c-0.3,0.6,0,1.1,0.4,1.3c0.6,0.3,1.1,0,1.3-0.4l4.1-8.7
		C12.6,16.4,12.3,15.8,11.9,15.5z"/>
	<path d="M24.1,7.3C23.1,3.1,19.5,0,15,0S6.9,3.1,5.9,7.3c-3.2,0-5.9,2.7-5.9,6c0,3.1,2.4,5.6,5.5,5.9l0,0h1c0.6,0,1-0.4,1-1
		s-0.4-1-1-1H5.6c-2.1-0.1-3.6-2-3.6-4.1s1.7-3.8,3.6-4.1l0,0v0.4v0.8v0.1c0,0.6,0.4,1,1,1s1-0.4,1-1v-0.1V9.5V9.1
		c0-4.1,3.2-7.3,7.3-7.3s7.3,3.2,7.3,7.3v0.4l0,0l0,0v1c0,0.6,0.4,1,1,1c0.6,0,1-0.4,1-1V9.8V9.5V9.1l0,0c2.1,0.1,3.6,2,3.6,4.1
		s-1.5,3.8-3.6,4.1l0,0h-0.8c-0.6,0-1,0.4-1,1s0.4,1,1,1h1l0,0c3.1-0.3,5.5-2.8,5.5-5.9C29.8,9.9,27.3,7.4,24.1,7.3z"/>
</g>
</svg>
