<?xml version="1.0" encoding="utf-8"?>
<!-- Generator: Adobe Illustrator 24.2.3, SVG Export Plug-In . SVG Version: 6.00 Build 0)  -->
<svg version="1.1" id="Layer_1" xmlns="http://www.w3.org/2000/svg" xmlns:xlink="http://www.w3.org/1999/xlink" x="0px" y="0px"
	 viewBox="0 0 29.7 27.7" style="enable-background:new 0 0 29.7 27.7;" xml:space="preserve">
<g>
	<circle cx="10.6" cy="17.5" r="0.8"/>
	<circle cx="19.3" cy="17.5" r="0.8"/>
	<circle cx="15" cy="20.7" r="0.8"/>
	<circle cx="10.6" cy="23.5" r="0.8"/>
	<circle cx="19.3" cy="23.5" r="0.8"/>
	<circle cx="15" cy="26.9" r="0.8"/>
	<path d="M24.1,7.3C23.1,3.1,19.5,0,15,0S6.9,3.1,5.9,7.3c-3.2,0-5.9,2.7-5.9,6c0,3.1,2.4,5.6,5.5,5.9l0,0h1c0.6,0,1-0.4,1-1
		s-0.4-1-1-1H5.6c-2.1-0.1-3.6-2-3.6-4.1s1.7-3.8,3.6-4.1l0,0v0.4v0.8v0.1c0,0.6,0.4,1,1,1s1-0.4,1-1v-0.1V9.5V9.1
		c0-4.1,3.2-7.3,7.3-7.3s7.3,3.2,7.3,7.3v0.6l0,0l0,0v1c0,0.6,0.4,1,1,1c0.6,0,1-0.4,1-1V9.9V9.7V9.2l0,0c2.1,0.1,3.6,2,3.6,4.1
		s-1.5,3.8-3.6,4.1l0,0h-0.8c-0.6,0-1,0.4-1,1c0,0.6,0.4,1,1,1h1l0,0c3.1-0.3,5.5-2.8,5.5-5.9C29.8,10.1,27.3,7.4,24.1,7.3z"/>
</g>
</svg>
