<?xml version="1.0" encoding="utf-8"?>
<!-- Generator: Adobe Illustrator 24.2.3, SVG Export Plug-In . SVG Version: 6.00 Build 0)  -->
<svg version="1.1" id="Layer_1" xmlns="http://www.w3.org/2000/svg" xmlns:xlink="http://www.w3.org/1999/xlink" x="0px" y="0px"
	 viewBox="0 0 26.5 26.3" style="enable-background:new 0 0 26.5 26.3;" xml:space="preserve">
<g>
	<path d="M13.2,6.2c-3.8,0-7,3.1-7,7c0,3.8,3.1,7,7,7s7-3.1,7-7S16.9,6.2,13.2,6.2z M13.2,18.2c-2.8,0-5-2.2-5-5s2.2-5,5-5
		s5,2.2,5,5S16,18.2,13.2,18.2z"/>
	<path d="M13.2,4.8c0.6,0,1-0.4,1-1V1c0-0.6-0.4-1-1-1c-0.6,0-1,0.4-1,1v2.8C12.2,4.3,12.6,4.8,13.2,4.8z"/>
	<path d="M13.2,21.6c-0.6,0-1,0.4-1,1v2.8c0,0.6,0.4,1,1,1s1-0.4,1-1v-2.8C14.1,22,13.7,21.6,13.2,21.6z"/>
	<path d="M25.5,12.2h-2.8c-0.6,0-1,0.4-1,1s0.4,1,1,1h2.8c0.6,0,1-0.4,1-1S25.9,12.2,25.5,12.2z"/>
	<path d="M4.8,13.2c0-0.6-0.4-1-1-1H1c-0.6,0-1,0.4-1,1s0.4,1,1,1h2.8C4.3,14.1,4.8,13.7,4.8,13.2z"/>
	<path d="M20.4,7.3l2-2c0.4-0.4,0.4-1,0-1.4c-0.4-0.4-1-0.4-1.4,0l-2,2c-0.4,0.4-0.4,1,0,1.4C19.5,7.6,20.2,7.6,20.4,7.3z"/>
	<path d="M5.9,19l-2,2c-0.4,0.4-0.4,1,0,1.4s1,0.4,1.4,0l2-2c0.4-0.4,0.4-1,0-1.4C6.9,18.8,6.2,18.8,5.9,19z"/>
	<path d="M20.4,19c-0.4-0.4-1-0.4-1.4,0s-0.4,1,0,1.4l2,2c0.4,0.4,1,0.4,1.4,0c0.4-0.4,0.4-1,0-1.4L20.4,19z"/>
	<path d="M5.9,7.3c0.4,0.4,1,0.4,1.4,0s0.4-1,0-1.4l-2-2c-0.4-0.4-1-0.4-1.4,0s-0.4,1,0,1.4L5.9,7.3z"/>
</g>
</svg>
