<?xml version="1.0" encoding="utf-8"?>
<!-- Generator: Adobe Illustrator 24.2.3, SVG Export Plug-In . SVG Version: 6.00 Build 0)  -->
<svg version="1.1" id="Layer_1" xmlns="http://www.w3.org/2000/svg" xmlns:xlink="http://www.w3.org/1999/xlink" x="0px" y="0px"
	 viewBox="0 0 29.7 32.3" style="enable-background:new 0 0 29.7 32.3;" xml:space="preserve">
<g>
	<path d="M24.1,7.3C23.1,3.1,19.5,0,15,0S6.9,3.1,5.9,7.3c-3.2,0-5.9,2.7-5.9,6s2.7,6,6,6H9v1c0,0.6,0.4,1,1,1s1-0.4,1-1v-1h7.8v1
		c0,0.6,0.4,1,1,1s1-0.4,1-1v-1h2.9c3.4,0,6-2.7,6-6C29.8,10.1,27.3,7.4,24.1,7.3z M23.9,17.4H6c-2.2,0-4.1-1.8-4.1-4.1
		c0-2.1,1.7-3.8,3.6-4.1l0,0v0.4v0.8v0.1c0,0.6,0.4,1,1,1s1-0.4,1-1l0,0V9.8V9.4c0-4.1,3.2-7.3,7.3-7.3s7.3,3.2,7.3,7.3v0.4l0,0l0,0
		v1c0,0.6,0.4,1,1,1s1-0.4,1-1v-0.7V9.8V9.4l0,0c2.1,0.1,3.6,2,3.6,4.1C27.9,15.5,26.2,17.4,23.9,17.4z"/>
	<path d="M15,19.9c-0.6,0-1,0.4-1,1v2.8c0,0.6,0.4,1,1,1s1-0.4,1-1v-2.8C16,20.3,15.5,19.9,15,19.9z"/>
	<path d="M10.1,24.1c-0.6,0-1,0.4-1,1v2.8c0,0.6,0.4,1,1,1s1-0.4,1-1v-2.8C11.1,24.5,10.6,24.1,10.1,24.1z"/>
	<path d="M19.9,24.1c-0.6,0-1,0.4-1,1v2.8c0,0.6,0.4,1,1,1s1-0.4,1-1v-2.8C20.9,24.5,20.4,24.1,19.9,24.1z"/>
	<path d="M15,27.6c-0.6,0-1,0.4-1,1v2.8c0,0.6,0.4,1,1,1s1-0.4,1-1v-2.8C16,28,15.5,27.6,15,27.6z"/>
</g>
</svg>
