<?xml version="1.0" encoding="utf-8"?>
<!-- Generator: Adobe Illustrator 24.2.3, SVG Export Plug-In . SVG Version: 6.00 Build 0)  -->
<svg version="1.1" id="Layer_1" xmlns="http://www.w3.org/2000/svg" xmlns:xlink="http://www.w3.org/1999/xlink" x="0px" y="0px"
	 viewBox="0 0 29.8 26.7" style="enable-background:new 0 0 29.8 26.7;" xml:space="preserve">
<path d="M24.1,7.3C23.1,3.1,19.5,0,15,0S6.9,3.1,5.9,7.3c-3.2,0-5.9,2.7-5.9,6s2.7,6,6,6h5.6l-1.5,2.5c-0.3,0.4-0.1,0.8,0.1,1.1
	c0.1,0.3,0.4,0.6,0.8,0.6l0,0c0.1,0,0.1,0,0.3,0H12l-1,1.7c-0.3,0.4-0.1,1,0.3,1.3l0.3,0.1c0.4,0.3,1,0.1,1.3-0.3l1.8-3.2
	c0.3-0.4,0.1-1-0.3-1.3l-0.3-0.1c-0.1-0.1-0.3-0.1-0.6-0.1l0,0h-0.8l1.1-1.8c0.1-0.1,0.1-0.3,0.1-0.4h1.7l-0.6,1
	c-0.3,0.4-0.1,0.8,0.1,1.1c0.1,0.3,0.4,0.6,0.8,0.6l0,0c0.1,0,0.1,0,0.3,0h0.7l-1,1.7c-0.3,0.4-0.1,1,0.3,1.3l0.3,0.1
	c0.4,0.3,1,0.1,1.3-0.3l1.8-3.2c0.3-0.4,0.1-1-0.3-1.3l-0.3-0.1C19,20,18.9,20,18.6,20l0,0h-0.8l0.4-0.7h5.6c3.4,0,6-2.7,6-6
	S27.3,7.4,24.1,7.3z M23.9,17.2H6c-2.2,0-4.1-1.8-4.1-4.1c0-2.1,1.7-3.8,3.6-4.1l0,0v0.4v0.8v0.1c0,0.6,0.4,1,1,1s1-0.4,1-1v-0.1
	V9.5V9.2c0-4.1,3.2-7.3,7.3-7.3s7.3,3.2,7.3,7.3v0.4l0,0l0,0v1c0,0.6,0.4,1,1,1c0.6,0,1-0.4,1-1V9.9V9.7V9.2l0,0
	c2.1,0.1,3.6,2,3.6,4.1C27.9,15.5,26.2,17.2,23.9,17.2z"/>
</svg>
