<?xml version="1.0" encoding="utf-8"?>
<!-- Generator: Adobe Illustrator 24.2.3, SVG Export Plug-In . SVG Version: 6.00 Build 0)  -->
<svg version="1.1" id="Layer_1" xmlns="http://www.w3.org/2000/svg" xmlns:xlink="http://www.w3.org/1999/xlink" x="0px" y="0px"
	 viewBox="0 0 40.5 26.7" style="enable-background:new 0 0 40.5 26.7;" xml:space="preserve">
<g>
	<path d="M6.4,15.4c0.6,0,1-0.4,1-1v-0.7v-0.3v-0.1c0-2.1,1.7-3.8,3.6-4.1l0,0v0.4v0.8v0.1c0,0.6,0.4,1,1,1s1-0.4,1-1v-0.1V9.7V9.2
		C13,5.2,16.2,2,20.3,2s7.3,3.2,7.3,7.3v0.4l0,0l0,0v1c0,0.6,0.4,1,1,1c0.6,0,1-0.4,1-1V9.9V9.7V9.2l0,0c2.1,0.1,3.6,2,3.6,4.1l0,0
		l0,0l0,0v1c0,0.6,0.4,1,1,1c0.6,0,1-0.4,1-1v-0.7v-0.3v-0.1l0,0c0-3.2-2.7-5.9-5.9-5.9c-1-4.2-4.6-7.3-9.1-7.3S12,3.1,11.1,7.3
		c-3.2,0-5.9,2.7-5.9,6l0,0l0,0l0,0v1C5.5,14.8,5.9,15.4,6.4,15.4z"/>
	<path d="M15.5,18.2c0-0.6-0.4-1-1-1H1c-0.6,0-1,0.4-1,1s0.4,1,1,1h13.6C15.1,19.2,15.5,18.8,15.5,18.2z"/>
	<path d="M39.5,17.4H28.7c-0.6,0-1,0.4-1,1c0,0.6,0.4,1,1,1h10.8c0.6,0,1-0.4,1-1C40.5,17.8,40,17.4,39.5,17.4z"/>
	<path d="M18.6,17.4c-0.6,0-1,0.4-1,1c0,0.6,0.4,1,1,1h5.9c0.6,0,1-0.4,1-1c0-0.6-0.4-1-1-1H18.6z"/>
	<path d="M19.6,22c0-0.6-0.4-1-1-1H7.8c-0.6,0-1,0.4-1,1c0,0.6,0.4,1,1,1h10.8C19.2,23,19.6,22.5,19.6,22z"/>
	<path d="M32.8,21.1h-9.7c-0.6,0-1,0.4-1,1s0.4,1,1,1h9.7c0.6,0,1-0.4,1-1C33.7,21.6,33.3,21.1,32.8,21.1z"/>
	<path d="M20.3,24.8h-6.4c-0.6,0-1,0.4-1,1s0.4,1,1,1h6.4c0.6,0,1-0.4,1-1S20.9,24.8,20.3,24.8z"/>
	<path d="M26.7,24.8h-2.2c-0.6,0-1,0.4-1,1s0.4,1,1,1h2.2c0.6,0,1-0.4,1-1S27.2,24.8,26.7,24.8z"/>
</g>
</svg>
