<?xml version="1.0" encoding="utf-8"?>
<!-- Generator: Adobe Illustrator 24.2.3, SVG Export Plug-In . SVG Version: 6.00 Build 0)  -->
<svg version="1.1" id="Layer_1" xmlns="http://www.w3.org/2000/svg" xmlns:xlink="http://www.w3.org/1999/xlink" x="0px" y="0px"
	 viewBox="0 0 38.8 38.1" style="enable-background:new 0 0 38.8 38.1;" xml:space="preserve">
<g>
	<circle cx="11.1" cy="27.9" r="0.8"/>
	<circle cx="19.6" cy="27.9" r="0.8"/>
	<circle cx="15.4" cy="31.2" r="0.8"/>
	<circle cx="11.1" cy="34" r="0.8"/>
	<circle cx="19.6" cy="34" r="0.8"/>
	<circle cx="15.4" cy="37.2" r="0.8"/>
	<path d="M25.5,4.8c0.6,0,1-0.4,1-1V1c0-0.6-0.4-1-1-1s-1,0.4-1,1v2.8C24.5,4.3,24.9,4.8,25.5,4.8z"/>
	<path d="M37.8,12.2H35c-0.6,0-1,0.4-1,1s0.4,1,1,1h2.8c0.6,0,1-0.4,1-1C38.8,12.7,38.2,12.2,37.8,12.2z"/>
	<path d="M32.8,7.3l2-2c0.4-0.4,0.4-1,0-1.4s-1-0.4-1.4,0l-2,2c-0.4,0.4-0.4,1,0,1.4C31.8,7.7,32.5,7.7,32.8,7.3z"/>
	<path d="M32.8,19.2c-0.4-0.4-1-0.4-1.4,0c-0.4,0.4-0.4,1,0,1.4l2,2c0.4,0.4,1,0.4,1.4,0c0.4-0.4,0.4-1,0-1.4L32.8,19.2z"/>
	<path d="M18.2,7.3c0.4,0.4,1,0.4,1.4,0c0.4-0.4,0.4-1,0-1.4l-2-2c-0.4-0.4-1-0.4-1.4,0c-0.4,0.4-0.4,1,0,1.4L18.2,7.3z"/>
	<path d="M32.5,13.2c0-3.8-3.1-7-7-7c-3.2,0-5.9,2.1-6.7,5c-1.1-0.6-2.4-0.8-3.8-0.8c-4.5,0-8.1,3.1-9.1,7.3c-3.2,0-5.9,2.7-5.9,6
		c0,3.2,2.5,5.9,5.7,6l0,0h1.1c0.6,0,1-0.4,1-1c0-0.6-0.4-1-1-1h-1c-2.1-0.1-3.8-1.8-3.8-4.1c0-2.1,1.7-3.8,3.6-4.1l0,0V20v0.8V21
		c0,0.6,0.4,1,1,1s1-0.4,1-1v-0.1V20v-0.4c0-4.1,3.2-7.3,7.3-7.3s7.3,3.2,7.3,7.3V20l0,0l0,0v1c0,0.6,0.4,1,1,1s1-0.4,1-1v-0.6v-0.3
		v-0.4l0,0c2.1,0.1,3.6,2,3.6,4.1s-1.5,3.8-3.5,3.9l0,0h-0.7c-0.6,0-1,0.4-1,1c0,0.6,0.4,1,1,1h1l0,0c2.9-0.4,5.2-2.9,5.2-5.9
		c0-1.5-0.7-3.1-1.7-4.1C30.8,18.5,32.5,16.1,32.5,13.2z M26.2,18.2c-0.7-0.3-1.4-0.4-2.1-0.4c-0.6-2.2-1.8-4.2-3.6-5.5
		c0.4-2.4,2.5-4.1,4.9-4.1c2.8,0,5,2.2,5,5C30.5,15.7,28.7,17.8,26.2,18.2z"/>
</g>
</svg>
