<?xml version="1.0" encoding="utf-8"?>
<!-- Generator: Adobe Illustrator 24.2.3, SVG Export Plug-In . SVG Version: 6.00 Build 0)  -->
<svg version="1.1" id="Layer_1" xmlns="http://www.w3.org/2000/svg" xmlns:xlink="http://www.w3.org/1999/xlink" x="0px" y="0px"
	 viewBox="0 0 29.7 24.6" style="enable-background:new 0 0 29.7 24.6;" xml:space="preserve">
<g>
	<path d="M24.1,7.3C23.1,3.1,19.5,0,15,0S6.9,3.1,5.9,7.3C2.7,7.4,0,10.1,0,13.3s2.7,6,6,6H9v1c0,0.6,0.4,1,1,1s1-0.4,1-1v-1h7.8v1
		c0,0.6,0.4,1,1,1s1-0.4,1-1v-1h2.9c3.2,0,6-2.7,6-6C30,10.1,27.4,7.4,24.1,7.3z M23.9,17.4H6.2c-2.2,0-4.1-1.8-4.1-4.1
		c0-2.1,1.7-3.8,3.6-4.1l0,0v0.4v0.8v0.1c0,0.6,0.4,1,1,1s1-0.4,1-1v-0.1V9.7V9.2C7.7,5.3,10.9,2,15,2s7.3,3.2,7.3,7.3v0.4l0,0l0,0
		v1.1c0,0.6,0.4,1,1,1c0.6,0,1-0.4,1-1v-0.7V9.8V9.4l0,0c2.1,0.1,3.6,2,3.6,4.1C28,15.5,26.2,17.4,23.9,17.4z"/>
	<path d="M15.1,19.9c-0.6,0-1,0.4-1,1v2.8c0,0.6,0.4,1,1,1s1-0.4,1-1v-2.8C16.1,20.3,15.7,19.9,15.1,19.9z"/>
</g>
</svg>
