<?xml version="1.0" encoding="utf-8"?>
<!-- Generator: Adobe Illustrator 24.2.3, SVG Export Plug-In . SVG Version: 6.00 Build 0)  -->
<svg version="1.1" id="Layer_1" xmlns="http://www.w3.org/2000/svg" xmlns:xlink="http://www.w3.org/1999/xlink" x="0px" y="0px"
	 viewBox="0 0 100 100" style="enable-background:new 0 0 100 100;" xml:space="preserve">
<g>
	<path d="M53.3,49.6c0-1-0.8-1.7-1.7-1.7c-0.8,0-1.5,0.5-1.7,1.3c-0.3-0.1-0.6-0.2-0.9-0.2c-1.1,0-2,0.8-2.3,1.8
		c-0.8,0-1.5,0.7-1.5,1.5c0,0.8,0.7,1.5,1.5,1.5h4.5c0.8,0,1.5-0.7,1.5-1.5c0-0.4-0.2-0.8-0.4-1C52.8,50.9,53.3,50.3,53.3,49.6z
		 M51.1,53.2h-4.5c-0.6,0-1-0.5-1-1c0-0.5,0.4-1,0.9-1c0,0,0,0,0,0v0.1v0.2v0.1c0,0.1,0.1,0.2,0.2,0.2c0.1,0,0.2-0.1,0.2-0.2v0v-0.2
		v-0.1c0-1,0.8-1.8,1.8-1.8c1,0,1.8,0.8,1.8,1.8v0.1c0,0,0,0,0,0c0,0,0,0,0,0v0.2c0,0.1,0.1,0.2,0.2,0.2c0.1,0,0.2-0.1,0.2-0.2v-0.2
		v-0.1v-0.1c0,0,0,0,0,0c0.5,0,0.9,0.5,0.9,1C52.1,52.8,51.7,53.2,51.1,53.2z M51.7,50.8c-0.2-0.1-0.3-0.1-0.5-0.1
		c-0.1-0.6-0.4-1-0.9-1.4c0.1-0.6,0.6-1,1.2-1c0.7,0,1.3,0.6,1.3,1.3C52.8,50.2,52.3,50.7,51.7,50.8z"/>
	<path d="M51.5,47.5c0.1,0,0.2-0.1,0.2-0.2v-0.7c0-0.1-0.1-0.2-0.2-0.2c-0.1,0-0.2,0.1-0.2,0.2v0.7C51.3,47.4,51.4,47.5,51.5,47.5z"
		/>
	<path d="M54.6,49.3h-0.7c-0.1,0-0.2,0.1-0.2,0.2c0,0.1,0.1,0.2,0.2,0.2h0.7c0.1,0,0.2-0.1,0.2-0.2C54.8,49.5,54.7,49.3,54.6,49.3z"
		/>
	<path d="M53.3,48.1l0.5-0.5c0.1-0.1,0.1-0.3,0-0.3c-0.1-0.1-0.3-0.1-0.3,0L53,47.8c-0.1,0.1-0.1,0.3,0,0.3
		C53.1,48.2,53.2,48.2,53.3,48.1z"/>
	<path d="M53.3,51.1c-0.1-0.1-0.3-0.1-0.3,0c-0.1,0.1-0.1,0.3,0,0.3l0.5,0.5c0.1,0.1,0.3,0.1,0.3,0c0.1-0.1,0.1-0.3,0-0.3L53.3,51.1
		z"/>
	<path d="M49.7,48.1c0.1,0.1,0.3,0.1,0.3,0c0.1-0.1,0.1-0.3,0-0.3l-0.5-0.5c-0.1-0.1-0.3-0.1-0.3,0c-0.1,0.1-0.1,0.3,0,0.3
		L49.7,48.1z"/>
</g>
</svg>
