<?xml version="1.0" encoding="utf-8"?>
<!-- Generator: Adobe Illustrator 24.2.3, SVG Export Plug-In . SVG Version: 6.00 Build 0)  -->
<svg version="1.1" id="Layer_1" xmlns="http://www.w3.org/2000/svg" xmlns:xlink="http://www.w3.org/1999/xlink" x="0px" y="0px"
	 viewBox="0 0 43.8 37.1" style="enable-background:new 0 0 43.8 37.1;" xml:space="preserve">
<g>
	<path d="M30.7,4.8c0.6,0,1-0.4,1-1V1c0-0.6-0.4-1-1-1c-0.6,0-1,0.4-1,1v2.8C29.7,4.3,30.1,4.8,30.7,4.8z"/>
	<path d="M42.8,12.2H40c-0.6,0-1,0.4-1,1s0.4,1,1,1h2.8c0.6,0,1-0.4,1-1S43.4,12.2,42.8,12.2z"/>
	<path d="M37.9,7.3l2-2c0.4-0.4,0.4-1,0-1.4c-0.4-0.4-1-0.4-1.4,0l-2,2c-0.4,0.4-0.4,1,0,1.4C37,7.7,37.5,7.7,37.9,7.3z"/>
	<path d="M36.5,19.2c-0.4,0.4-0.4,1,0,1.4l2,2c0.4,0.4,1,0.4,1.4,0c0.4-0.4,0.4-1,0-1.4l-2-2C37.5,18.8,37,18.8,36.5,19.2z"/>
	<path d="M23.2,7.3c0.4,0.4,1,0.4,1.4,0c0.4-0.4,0.4-1,0-1.4l-2-2c-0.4-0.4-1-0.4-1.4,0s-0.4,1,0,1.4L23.2,7.3z"/>
	<path d="M6.3,25.8c0.6,0,1-0.4,1-1v-0.7v-0.3v-0.1c0-2.1,1.7-3.8,3.6-4.1l0,0V20v0.8V21c0,0.6,0.4,1,1,1c0.6,0,1-0.4,1-1v-0.1V20
		v-0.4c0-4.1,3.2-7.3,7.3-7.3s7.3,3.2,7.3,7.3V20l0,0l0,0v1c0,0.6,0.4,1,1,1c0.6,0,1-0.4,1-1v-0.7V20v-0.4l0,0
		c2.1,0.1,3.6,2,3.6,3.9l0,0l0,0l0,0v1c0,0.6,0.4,1,1,1s1-0.4,1-1v-0.4v-0.3l0,0l0,0l0,0l0,0l0,0c0-1.5-0.7-3.1-1.7-4.1
		c2.4-1.1,4.2-3.5,4.2-6.3c0-3.8-3.1-7-7-7c-3.2,0-5.9,2.1-6.7,5c-1.1-0.6-2.4-0.8-3.8-0.8c-4.5,0-8.1,3.1-9.1,7.3
		c-3.2,0-5.9,2.7-5.9,6v0.1l0,0l0,0v1C5.3,25.3,5.7,25.8,6.3,25.8z M30.7,8.1c2.8,0,5,2.2,5,5c0,2.5-1.8,4.6-4.3,4.9
		c-0.7-0.3-1.4-0.4-2.1-0.4c-0.6-2.2-1.8-4.2-3.6-5.5C26.2,9.9,28.1,8.1,30.7,8.1z"/>
	<path d="M15.5,28.7c0-0.6-0.4-1-1-1H1c-0.6,0-1,0.4-1,1c0,0.6,0.4,1,1,1h13.6C15.1,29.5,15.5,29.1,15.5,28.7z"/>
	<path d="M39.5,27.7H28.7c-0.6,0-1,0.4-1,1c0,0.6,0.4,1,1,1h10.8c0.6,0,1-0.4,1-1C40.5,28.1,40,27.7,39.5,27.7z"/>
	<path d="M18.5,27.7c-0.6,0-1,0.4-1,1c0,0.6,0.4,1,1,1h5.9c0.6,0,1-0.4,1-1c0-0.6-0.4-1-1-1H18.5z"/>
	<path d="M19.5,32.5c0-0.6-0.4-1-1-1H7.7c-0.6,0-1,0.4-1,1c0,0.6,0.4,1,1,1h10.8C19.2,33.3,19.5,32.9,19.5,32.5z"/>
	<path d="M32.8,31.5h-9.7c-0.6,0-1,0.4-1,1c0,0.6,0.4,1,1,1h9.7c0.6,0,1-0.4,1-1C33.7,31.9,33.3,31.5,32.8,31.5z"/>
	<path d="M20.3,35.1h-6.4c-0.6,0-1,0.4-1,1c0,0.6,0.4,1,1,1h6.4c0.6,0,1-0.4,1-1C21.3,35.6,20.9,35.1,20.3,35.1z"/>
	<path d="M26.6,35.1h-2.2c-0.6,0-1,0.4-1,1c0,0.6,0.4,1,1,1h2.2c0.6,0,1-0.4,1-1C27.6,35.6,27.2,35.1,26.6,35.1z"/>
</g>
</svg>
